{
  "asset": {
    "generator": "Khronos glTF Blender I/O v1.4.40",
    "version": "2.0"
  },
  "scene": 0,
  "scenes": [
    {
      "name": "Scene",
      "nodes": [2]
    }
  ],
  "nodes": [
    {
      "mesh": 0,
      "name": "Slice"
    },
    {
      "mesh": 1,
      "name": "Slice.001",
      "translation": [1.0015385150909424, 0.3890265226364136, -0.9140546321868896]
    },
    {
      "children": [0, 1],
      "name": "Cube",
      "translation": [0, 1, 0]
    }
  ],
  "materials": [
    {
      "doubleSided": true,
      "name": "sc",
      "pbrMetallicRoughness": {
        "baseColorFactor": [0.018848737701773643, 0.018848737701773643, 0.018848737701773643, 1],
        "metallicFactor": 0,
        "roughnessFactor": 0.20000000298023224
      }
    },
    {
      "doubleSided": true,
      "name": "Material",
      "pbrMetallicRoughness": {}
    }
  ],
  "meshes": [
    {
      "name": "Slice.001",
      "primitives": [
        {
          "attributes": {
            "POSITION": 0,
            "NORMAL": 1,
            "TEXCOORD_0": 2
          },
          "indices": 3,
          "material": 0
        }
      ]
    },
    {
      "name": "Slice.002",
      "primitives": [
        {
          "attributes": {
            "POSITION": 4,
            "NORMAL": 5,
            "TEXCOORD_0": 6
          },
          "indices": 7,
          "material": 1
        }
      ]
    }
  ],
  "accessors": [
    {
      "bufferView": 0,
      "componentType": 5126,
      "count": 1370,
      "max": [0.9873210787773132, 0.8258311748504639, -0.09347132593393326],
      "min": [0.7619193196296692, -0.0389365553855896, -1.7587729692459106],
      "type": "VEC3"
    },
    {
      "bufferView": 1,
      "componentType": 5126,
      "count": 1370,
      "type": "VEC3"
    },
    {
      "bufferView": 2,
      "componentType": 5126,
      "count": 1370,
      "type": "VEC2"
    },
    {
      "bufferView": 3,
      "componentType": 5123,
      "count": 7386,
      "type": "SCALAR"
    },
    {
      "bufferView": 4,
      "componentType": 5126,
      "count": 1273,
      "max": [1.0248190490669273e-10, 0.4368046820163727, 0.8205833435058594],
      "min": [-0.013000059872865677, -0.4279630482196808, -0.844718337059021],
      "type": "VEC3"
    },
    {
      "bufferView": 5,
      "componentType": 5126,
      "count": 1273,
      "type": "VEC3"
    },
    {
      "bufferView": 6,
      "componentType": 5126,
      "count": 1273,
      "type": "VEC2"
    },
    {
      "bufferView": 7,
      "componentType": 5123,
      "count": 7440,
      "type": "SCALAR"
    }
  ],
  "bufferViews": [
    {
      "buffer": 0,
      "byteLength": 16440,
      "byteOffset": 0
    },
    {
      "buffer": 0,
      "byteLength": 16440,
      "byteOffset": 16440
    },
    {
      "buffer": 0,
      "byteLength": 10960,
      "byteOffset": 32880
    },
    {
      "buffer": 0,
      "byteLength": 14772,
      "byteOffset": 43840
    },
    {
      "buffer": 0,
      "byteLength": 15276,
      "byteOffset": 58612
    },
    {
      "buffer": 0,
      "byteLength": 15276,
      "byteOffset": 73888
    },
    {
      "buffer": 0,
      "byteLength": 10184,
      "byteOffset": 89164
    },
    {
      "buffer": 0,
      "byteLength": 14880,
      "byteOffset": 99348
    }
  ],
  "buffers": [
    {
      "byteLength": 114228,
      "uri": "data:application/octet-stream;base64,"
    }
  ]
}
